<svg xmlns="http://www.w3.org/2000/svg" height="40" viewBox="0 96 960 960" width="40"><path d="M813.334 976V369.333q0-36.333-25.167-61.5t-61.5-25.167H680v58.667q0 9.143-6.095 15.238-6.095 6.095-15.238 6.095h-224q-11.333 0-17.167-12.333Q411.667 338 416.667 328l76-164q5.667-13 17.767-20.5t28.233-7.5h92q21.143 0 35.238 16Q680 168 680 189.333V216h46.667q64 0 108.666 44.667Q880 305.333 880 369.333V976h-66.666ZM504.667 296h108.667v-93.334h-66.667l-42 93.334ZM193.333 976q-48.166 0-80.75-32.583Q80 910.833 80 862.667v-100q0-30.333 22-57.627 22-27.294 58-33.04v-96q0-27.5 19.583-47.083t47.083-19.583H560q27.5 0 47.083 19.583T626.666 576v96q36 5.734 58 31.534 22 25.8 22 59.133v100q0 48.166-32.583 80.75Q641.5 976 593.333 976h-400Zm33.333-400v110q18 15 29 34.449 11 19.449 11 42.218v26.667H520v-26.667q0-22.769 11-42.218Q542 701 560 686V576H226.666Zm-33.333 333.334h400q21 0 33.834-14.584Q640 880.167 640 862.667v-100q0-12-7.333-19.334Q625.333 736 613.333 736T594 743.333q-7.334 7.334-7.334 19.334V856H200v-93.333q0-12-7.333-19.334Q185.333 736 173.333 736T154 743.333q-7.334 7.334-7.334 19.334v100q0 17.5 12.834 32.083 12.833 14.584 33.833 14.584Zm326.667-120H266.666 520ZM226.666 576H560 226.666ZM200 909.334h386.666H200Z"/></svg>