<svg xmlns="http://www.w3.org/2000/svg" height="20" viewBox="0 96 960 960" width="20"><path d="M792 960V408q0-44.55-31.725-76.275Q728.55 300 684 300h-12v60q0 10.286-6.857 17.143Q658.286 384 648 384H408q-13 0-20-11t-2-22l70-177q6.176-14.062 18.088-22.031Q486 144 501 144h123q20 0 34 14t14 34v36h12q75 0 127.5 52.5T864 408v552h-72ZM479 312h121v-96h-83l-38 96ZM192 960q-40 0-68-28t-28-68v-96q0-33 20-59.5t52-33.567V576q0-29.7 21.15-50.85Q210.3 504 240 504h336q29.7 0 50.85 21.15Q648 546.3 648 576v98.933Q680 682 700 708.5t20 59.5v96q0 40-28 68t-68 28H192Zm48-384v109q23 13 35.5 35.077Q288 742.154 288 768h240q0-26 13-47.5t35-35.5V576H240Zm-48 312h432q10 0 17-7t7-17v-96q0-10-7-17t-17-7q-10 0-17 7t-7 17v72H216v-72q0-10-7-17t-17-7q-10 0-17 7t-7 17v96q0 10 7 17t17 7Zm336-120H288h240ZM240 576h336-336Zm-48 312h432-432Z"/></svg>